<svg xmlns="http://www.w3.org/2000/svg" viewBox="0 0 301.02 257.29"><defs><style>.cls-1,.cls-2{fill:#231f20;}.cls-2{stroke:#231f20;stroke-miterlimit:10;}</style></defs><g id="Layer_2" data-name="Layer 2"><g id="Layer_4" data-name="Layer 4"><polygon class="cls-1" points="89.63 3.34 67.67 40.42 122.97 71.06 108.71 21.99 89.63 3.34"/><polygon class="cls-2" points="109.76 14.11 115.4 20.33 128.99 70.35 168.75 47.36 239.45 35.65 276.17 4.86 237.13 13.53 130.15 0.52 109.76 14.11"/><polygon class="cls-2" points="59.45 44.9 125.52 81.54 142.15 71.06 135.64 129.48 119.74 101.43 112.36 121.39 133.33 138.01 125.23 209.72 54.82 210.45 0.6 127.67 59.45 44.9"/><polygon class="cls-2" points="150.24 65.14 169.33 53.43 179.45 121.39 139.54 227.51 130.44 211.46 150.24 65.14"/><polygon class="cls-2" points="177.13 58.2 183.79 107.94 262.36 114.92 299.23 92.9 253.8 92.58 177.13 58.2"/><polygon class="cls-2" points="60.24 216.41 124.33 216.41 138.32 240.59 115.55 256.75 74.23 247.21 60.24 216.41"/></g></g></svg>